{
	"asset":{
		"version":"2.0",
		"generator":"Created using the official Cinema 4D glTF Exporter 1.000x284978"
	},
	"scenes":[{
		"nodes":[0]
	}],
	"nodes":[{
		"name":"Extrude",
		"mesh":0
	}],
	"meshes":[{
		"name":"Extrude",
		"primitives":[{
			"attributes":{
				"POSITION":1,
				"NORMAL":2,
				"TEXCOORD_0":3
			},
			"indices":0,
			"material":0
		}]
	}],
	"accessors":[{
		"bufferView":0,
		"type":"SCALAR",
		"componentType":5123,
		"count":2220,
		"byteOffset":0,
		"min":[0],
		"max":[779]
	},
	{
		"bufferView":1,
		"type":"VEC3",
		"componentType":5126,
		"count":780,
		"byteOffset":0,
		"min":[-3.2018911838531496,
		-3.2636516094207765,
		-0.3753297030925751],
		"max":[3.2018911838531496,
		3.2636516094207765,
		0.3753297030925751]
	},
	{
		"bufferView":1,
		"type":"VEC3",
		"componentType":5126,
		"count":780,
		"byteOffset":12,
		"min":[-0.9979116320610046,
		-1.0,
		-1.0],
		"max":[0.9979116320610046,
		1.0,
		1.0]
	},
	{
		"bufferView":1,
		"type":"VEC2",
		"componentType":5126,
		"count":780,
		"byteOffset":24,
		"min":[0.0,
		0.0],
		"max":[1.0,
		1.0]
	}],
	"bufferViews":[{
		"buffer":0,
		"byteOffset":0,
		"byteLength":4440,
		"target":34963
	},
	{
		"buffer":0,
		"byteOffset":4440,
		"byteLength":24960,
		"target":34962,
		"byteStride":32
	}],
	"buffers":[{
		"uri":"data:application/octet-stream;base64,",
		"byteLength":29400
	}],
	"materials":[{
		"pbrMetallicRoughness":{
			"baseColorFactor":[1.0,
			1.0,
			1.0,
			1.0],
			"metallicFactor":0.0,
			"roughnessFactor":0.5
		},
		"emissiveFactor":[0.0,
		0.0,
		0.0],
		"alphaMode":"OPAQUE",
		"doubleSided":false,
		"name":"Mat"
	}]
}