{
	"asset":{
		"version":"2.0",
		"generator":"Created using the official Cinema 4D glTF Exporter 1.000x284978"
	},
	"scenes":[{
		"nodes":[0]
	}],
	"nodes":[{
		"name":"Extrude",
		"children":[1]
	},
	{
		"name":"Extrude",
		"mesh":0
	}],
	"meshes":[{
		"name":"Extrude",
		"primitives":[{
			"attributes":{
				"POSITION":1,
				"NORMAL":2,
				"TEXCOORD_0":3
			},
			"indices":0,
			"material":0
		}]
	}],
	"accessors":[{
		"bufferView":0,
		"type":"SCALAR",
		"componentType":5123,
		"count":1020,
		"byteOffset":0,
		"min":[0],
		"max":[582]
	},
	{
		"bufferView":1,
		"type":"VEC3",
		"componentType":5126,
		"count":583,
		"byteOffset":0,
		"min":[-3.1998910903930666,
		-3.2636516094207765,
		-1.0],
		"max":[3.1998910903930666,
		3.2636516094207765,
		-0.24934059381484986]
	},
	{
		"bufferView":1,
		"type":"VEC3",
		"componentType":5126,
		"count":583,
		"byteOffset":12,
		"min":[-1.0,
		-1.0,
		-1.0],
		"max":[1.0,
		1.0,
		1.0]
	},
	{
		"bufferView":1,
		"type":"VEC2",
		"componentType":5126,
		"count":583,
		"byteOffset":24,
		"min":[-0.00022430403623729944,
		-0.005346267484128475],
		"max":[1.000006914138794,
		1.0053460597991944]
	}],
	"bufferViews":[{
		"buffer":0,
		"byteOffset":0,
		"byteLength":2040,
		"target":34963
	},
	{
		"buffer":0,
		"byteOffset":2040,
		"byteLength":18656,
		"target":34962,
		"byteStride":32
	}],
	"buffers":[{
		"uri":"data:application/octet-stream;base64,",
		"byteLength":20696
	}],
	"materials":[{
		"pbrMetallicRoughness":{
			"baseColorFactor":[1.0,
			1.0,
			1.0,
			1.0],
			"metallicFactor":0.0,
			"roughnessFactor":0.5
		},
		"emissiveFactor":[0.0,
		0.0,
		0.0],
		"alphaMode":"OPAQUE",
		"name":"Mat",
		"doubleSided":false
	}]
}